<svg xmlns="http://www.w3.org/2000/svg" width="22.479" height="22.132" viewBox="0 0 22.479 22.132">
  <path id="Path_3" data-name="Path 3" d="M14.239,3a11.233,11.233,0,0,0-2.724,22.132,1.64,1.64,0,0,1-.086-.546V22.665H10.017a1.956,1.956,0,0,1-1.784-.945c-.368-.683-.432-1.727-1.344-2.366-.271-.213-.065-.455.247-.422a2.945,2.945,0,0,1,1.5,1.145,1.444,1.444,0,0,0,1.495.72,10.738,10.738,0,0,0,1.584-.113,3.526,3.526,0,0,1,1.487-1.838c-3.743-.385-5.529-2.247-5.529-4.775a4.594,4.594,0,0,1,1.251-3.028c-.259-.88-.584-2.676.1-3.36A3.912,3.912,0,0,1,11.974,9.07a8.5,8.5,0,0,1,5.466,0,3.91,3.91,0,0,1,2.948-1.389c.686.685.357,2.488.1,3.366a4.592,4.592,0,0,1,1.244,3.021c0,2.526-1.783,4.387-5.52,4.774a3.943,3.943,0,0,1,1.779,3.181v2.561a1.648,1.648,0,0,1-.033.251A11.233,11.233,0,0,0,14.239,3Z" transform="translate(-3 -3)" fill="#ffffff"/>
</svg>
