<svg xmlns="http://www.w3.org/2000/svg" width="22.04" height="22.04" viewBox="0 0 22.04 22.04">
  <path id="Path_4" data-name="Path 4" d="M23.416,4H6.624A2.625,2.625,0,0,0,4,6.624V23.416A2.625,2.625,0,0,0,6.624,26.04H23.416a2.625,2.625,0,0,0,2.624-2.624V6.624A2.625,2.625,0,0,0,23.416,4ZM10.822,12.4v9.971H7.673V12.4Zm-3.149-2.9A1.4,1.4,0,0,1,9.248,8.2a1.42,1.42,0,0,1,1.574,1.3,1.4,1.4,0,0,1-1.574,1.328A1.42,1.42,0,0,1,7.673,9.494ZM22.367,22.367H19.218V17.119A1.887,1.887,0,0,0,17.382,15H17.34c-1.27,0-1.795,1.081-1.795,2.12v5.248H12.4V12.4h3.149V13.74A3.931,3.931,0,0,1,18.594,12.4c2.083,0,3.773,1.433,3.773,4.335Z" transform="translate(-4 -4)" fill="#ffffff"/>
</svg>
